<svg xmlns="http://www.w3.org/2000/svg" width="400" height="520" viewBox="0 0 400 520">
  <rect width="400" height="520" fill="#ffffff"/>
  <rect x="0" y="0" width="400" height="56" fill="#102A23"/>
  <text x="24" y="36" fill="#F4B400" font-family="Arial,sans-serif" font-size="14" font-weight="700">Keyword Visibility Report</text>
  <text x="24" y="88" fill="#102A23" font-family="Arial,sans-serif" font-size="11" font-weight="700">Local Search Rankings</text>
  <rect x="24" y="100" width="352" height="28" fill="#F7F0DD" rx="4"/>
  <text x="36" y="118" fill="#5C6F69" font-family="Arial,sans-serif" font-size="10" font-weight="600">Keyword</text>
  <text x="260" y="118" fill="#5C6F69" font-family="Arial,sans-serif" font-size="10" font-weight="600">Position</text>
  <text x="330" y="118" fill="#5C6F69" font-family="Arial,sans-serif" font-size="10" font-weight="600">Trend</text>
  <rect x="24" y="132" width="352" height="36" fill="#FFFDF7" stroke="#E8E1CC"/>
  <text x="36" y="154" fill="#102A23" font-family="Arial,sans-serif" font-size="10">dentist near me</text>
  <text x="260" y="154" fill="#102A23" font-family="Arial,sans-serif" font-size="10" font-weight="700">#4</text>
  <polyline points="330,158 340,150 350,154 360,146" fill="none" stroke="#22C55E" stroke-width="2"/>
  <rect x="24" y="172" width="352" height="36" fill="#ffffff" stroke="#E8E1CC"/>
  <text x="36" y="194" fill="#102A23" font-family="Arial,sans-serif" font-size="10">best dentist in area</text>
  <text x="260" y="194" fill="#102A23" font-family="Arial,sans-serif" font-size="10" font-weight="700">#7</text>
  <polyline points="330,198 340,202 350,196 360,200" fill="none" stroke="#F4B400" stroke-width="2"/>
  <rect x="24" y="212" width="352" height="36" fill="#FFFDF7" stroke="#E8E1CC"/>
  <text x="36" y="234" fill="#102A23" font-family="Arial,sans-serif" font-size="10">dental clinic</text>
  <text x="260" y="234" fill="#102A23" font-family="Arial,sans-serif" font-size="10" font-weight="700">#12</text>
  <polyline points="330,238 340,242 350,246 360,250" fill="none" stroke="#EF4444" stroke-width="2"/>
  <rect x="24" y="252" width="352" height="36" fill="#ffffff" stroke="#E8E1CC"/>
  <text x="36" y="274" fill="#102A23" font-family="Arial,sans-serif" font-size="10">teeth whitening</text>
  <text x="260" y="274" fill="#102A23" font-family="Arial,sans-serif" font-size="10" font-weight="700">#9</text>
  <polyline points="330,278 340,272 350,268 360,264" fill="none" stroke="#22C55E" stroke-width="2"/>
  <text x="24" y="330" fill="#102A23" font-family="Arial,sans-serif" font-size="11" font-weight="700">Visibility Score</text>
  <rect x="24" y="346" width="352" height="120" fill="#FFFDF7" stroke="#E8E1CC" rx="8"/>
  <polyline points="40,440 90,400 140,410 190,360 240,370 290,320 340,330 360,300" fill="none" stroke="#F4B400" stroke-width="3"/>
  <text x="24" y="490" fill="#8A9A94" font-family="Arial,sans-serif" font-size="9">Digital Yes Marketing · Confidential</text>
</svg>
